<?xml version="1.0" encoding="UTF-8" standalone="no"?>
<!-- Created with Inkscape (http://www.inkscape.org/) -->

<svg
   xmlns:dc="http://purl.org/dc/elements/1.1/"
   xmlns:cc="http://creativecommons.org/ns#"
   xmlns:rdf="http://www.w3.org/1999/02/22-rdf-syntax-ns#"
   xmlns:svg="http://www.w3.org/2000/svg"
   xmlns="http://www.w3.org/2000/svg"
   xmlns:sodipodi="http://sodipodi.sourceforge.net/DTD/sodipodi-0.dtd"
   xmlns:inkscape="http://www.inkscape.org/namespaces/inkscape"
   width="300"
   height="300"
   id="svg2"
   version="1.1"
   inkscape:version="0.47 r22583"
   sodipodi:docname="datum_bestfit.svg">
  <defs
     id="defs4">
    <inkscape:perspective
       sodipodi:type="inkscape:persp3d"
       inkscape:vp_x="0 : 526.18109 : 1"
       inkscape:vp_y="0 : 1000 : 0"
       inkscape:vp_z="744.09448 : 526.18109 : 1"
       inkscape:persp3d-origin="372.04724 : 350.78739 : 1"
       id="perspective10" />
  </defs>
  <sodipodi:namedview
     id="base"
     pagecolor="#ffffff"
     bordercolor="#666666"
     borderopacity="1.0"
     inkscape:pageopacity="0.0"
     inkscape:pageshadow="2"
     inkscape:zoom="0.98994949"
     inkscape:cx="276.35737"
     inkscape:cy="11.883051"
     inkscape:document-units="px"
     inkscape:current-layer="layer1"
     showgrid="false"
     inkscape:window-width="914"
     inkscape:window-height="844"
     inkscape:window-x="941"
     inkscape:window-y="28"
     inkscape:window-maximized="0" />
  <metadata
     id="metadata7">
    <rdf:RDF>
      <cc:Work
         rdf:about="">
        <dc:format>image/svg+xml</dc:format>
        <dc:type
           rdf:resource="http://purl.org/dc/dcmitype/StillImage" />
        <dc:title />
      </cc:Work>
    </rdf:RDF>
  </metadata>
  <g
     inkscape:label="Layer 1"
     inkscape:groupmode="layer"
     id="layer1"
     transform="translate(0,-752.36218)">
    <path
       sodipodi:type="arc"
       style="fill:none;stroke:#800000;stroke-opacity:1"
       id="path2816"
       sodipodi:cx="352.14285"
       sodipodi:cy="500.21933"
       sodipodi:rx="136.42857"
       sodipodi:ry="103.57143"
       d="m 488.57143,500.21933 a 136.42857,103.57143 0 1 1 -272.85715,0 136.42857,103.57143 0 1 1 272.85715,0 z"
       transform="translate(-201.90435,396.21384)" />
    <path
       sodipodi:type="arc"
       style="fill:none;stroke:#800000;stroke-opacity:1"
       id="path2818"
       sodipodi:cx="332.14285"
       sodipodi:cy="503.79074"
       sodipodi:rx="85"
       sodipodi:ry="137.14285"
       d="m 417.14285,503.79074 a 85,137.14285 0 1 1 -170,0 85,137.14285 0 1 1 170,0 z"
       transform="translate(-201.90435,396.21384)" />
    <path
       sodipodi:type="arc"
       style="fill:none;stroke:#800000;stroke-opacity:1"
       id="path2820"
       sodipodi:cx="350"
       sodipodi:cy="502.36218"
       sodipodi:rx="120"
       sodipodi:ry="131.42857"
       d="m 470,502.36218 a 120,131.42857 0 1 1 -240,0 120,131.42857 0 1 1 240,0 z"
       transform="translate(-201.90435,396.21384)" />
    <path
       style="fill:none;stroke:#000000;stroke-width:2;stroke-linecap:butt;stroke-linejoin:miter;stroke-opacity:1"
       d="m 13.809948,884.86177 c 4.28571,-41.4286 48.57142,-122 118.571422,-124.8572 70,-2.8571 152.72417,75.6975 152.85714,135.7143 0.13928,61.4322 -55.71428,104.28573 -75.71427,115.71433 -20.79202,11.8812 -69.05438,27.1423 -85.71429,25.7143 C 73.809938,1032.8618 13.809938,936.29037 13.809948,884.86177 z"
       id="path2822"
       sodipodi:nodetypes="cssssc" />
  </g>
</svg>
